# xmcd
#
# Track frame offsets:
#	150
#	23154
#	43825
#	77132
#	93945
#	111093
#	137511
#	169599
#	193847
#
# Disc length: 2978 seconds
#
# Revision: 13
# Processed by: cddbd v1.5.2PL0 Copyright (c) Steve Scherf et al.
# Submitted via: Jack! The Knife 20 Magnifico
#
DISCID=6e0ba009
DTITLE=Heathen - Breaking The Silence
DYEAR=1987
DGENRE=Heavy Metal
TTITLE0=Death By Hanging
TTITLE1=Goblins Blade
TTITLE2=Open The Grave
TTITLE3=Pray For Death
TTITLE4=Set Me Free
TTITLE5=Breaking The Silence
TTITLE6=Worlds End
TTITLE7=Save The Skull
TTITLE8=Heathen
EXTD=Ronnie Montrose
EXTT0=
EXTT1=
EXTT2=
EXTT3=
EXTT4=Andy Scott
EXTT5=
EXTT6=
EXTT7=
EXTT8=
PLAYORDER=
